<?xml version="1.0" encoding="utf-8"?>
<!-- Generator: Adobe Illustrator 18.1.1, SVG Export Plug-In . SVG Version: 6.00 Build 0)  -->
<svg version="1.1" id="Layer_1" onclick="notify(this, &quot;select&quot;);"
	 xmlns="http://www.w3.org/2000/svg" xmlns:xlink="http://www.w3.org/1999/xlink" x="0px" y="0px" viewBox="0 0 115 114.9"
	 enable-background="new 0 0 115 114.9" xml:space="preserve">
<text id="lastName" transform="matrix(1 0 0 1 20.8107 45.8135)" fill="#0F5B5C" font-family="'lust-script'" font-size="11.9571">Richardson</text>
<text id="firstName" transform="matrix(1 0 0 1 14.4884 32.0058)" fill="#0F5B5C" font-family="'lust-script'" font-size="11.9571">Lauren &amp; Jeff</text>
<text id="date" transform="matrix(1 0 0 1 36.9635 55.8505)" fill="#0F5B5C" font-family="'lust-script'" font-size="10.1176">11.10.16</text>
<g>
	<defs>
		<circle id="SVGID_1_" cx="57.4" cy="58.1" r="54"/>
	</defs>
	<clipPath id="SVGID_2_">
		<use xlink:href="#SVGID_1_"  overflow="visible"/>
	</clipPath>
	<g id="pattern" clip-path="url(#SVGID_2_)">
		<path id="XMLID_6_" fill="#0F5B5C" d="M112.4,57.2v5.2l-14,13l-14-13l-14,13l-14-13l-14,13l-14-13l-14,13l-14-13v-5.2l14,13l14-13
			l14,13l14-13l14,13l14-13l14,13L112.4,57.2z M98.4,81.3c0,0-1.8-1.7-4.2-3.9c-4.1-3.8-9.8-9.1-9.8-9.1s-5.7,5.3-9.8,9.1
			c-2.3,2.2-4.2,3.9-4.2,3.9s-1.8-1.7-4.2-3.9c-4.1-3.8-9.8-9.1-9.8-9.1s-5.7,5.3-9.8,9.1c-2.3,2.2-4.2,3.9-4.2,3.9
			s-1.8-1.7-4.2-3.9c-4.1-3.8-9.8-9.1-9.8-9.1s-5.7,5.3-9.8,9.1c-2.3,2.2-4.2,3.9-4.2,3.9s-1.8-1.7-4.2-3.9
			c-4.1-3.8-9.8-9.1-9.8-9.1v5.2c0,0,1.8,1.7,4.2,3.9h0c4.1,3.8,9.8,9.1,9.8,9.1s5.7-5.3,9.8-9.1h0c2.3-2.2,4.2-3.9,4.2-3.9
			s1.8,1.7,4.2,3.9h0c4.1,3.8,9.8,9.1,9.8,9.1s5.7-5.3,9.8-9.1h0c2.3-2.2,4.2-3.9,4.2-3.9s1.8,1.7,4.2,3.9h0
			c4.1,3.8,9.8,9.1,9.8,9.1s5.7-5.3,9.8-9.1h0c2.3-2.2,4.2-3.9,4.2-3.9s1.8,1.7,4.2,3.9h0c4.1,3.8,9.8,9.1,9.8,9.1s5.7-5.3,9.8-9.1
			h0c2.3-2.2,4.2-3.9,4.2-3.9v-5.2c0,0-5.7,5.3-9.8,9.1C100.3,79.6,98.4,81.3,98.4,81.3z M84.4,79.5l-14,13l-14-13l-14,13l-14-13
			l-14,13l-14-13v5.2l14,13l14-13l14,13l14-13l14,13l14-13l14,13l14-13v-5.2l-14,13L84.4,79.5z M98.4,103.7c0,0-1.8-1.7-4.2-3.9
			c-4.1-3.8-9.8-9.1-9.8-9.1s-5.7,5.3-9.8,9.1c-2.3,2.2-4.2,3.9-4.2,3.9s-1.8-1.7-4.2-3.9c-4.1-3.8-9.8-9.1-9.8-9.1
			s-5.7,5.3-9.8,9.1c-2.3,2.2-4.2,3.9-4.2,3.9s-1.8-1.7-4.2-3.9c-4.1-3.8-9.8-9.1-9.8-9.1s-5.7,5.3-9.8,9.1
			c-2.3,2.2-4.2,3.9-4.2,3.9s-1.8-1.7-4.2-3.9c-4.1-3.8-9.8-9.1-9.8-9.1v5.2c0,0,1.8,1.7,4.2,3.9h0c4.1,3.8,9.8,9.1,9.8,9.1
			s5.7-5.3,9.8-9.1h0c2.3-2.2,4.2-3.9,4.2-3.9s1.8,1.7,4.2,3.9h0c4.1,3.8,9.8,9.1,9.8,9.1s5.7-5.3,9.8-9.1h0
			c2.3-2.2,4.2-3.9,4.2-3.9s1.8,1.7,4.2,3.9h0c4.1,3.8,9.8,9.1,9.8,9.1s5.7-5.3,9.8-9.1h0c2.3-2.2,4.2-3.9,4.2-3.9s1.8,1.7,4.2,3.9
			h0c4.1,3.8,9.8,9.1,9.8,9.1s5.7-5.3,9.8-9.1h0c2.3-2.2,4.2-3.9,4.2-3.9v-5.2c0,0-5.7,5.3-9.8,9.1C100.3,102,98.4,103.7,98.4,103.7
			z M84.4,101.9l-14,13l-14-13l-14,13l-14-13l-14,13l-14-13v5.2l14,13l14-13l14,13l14-13l14,13l14-13l14,13l14-13v-5.2l-14,13
			L84.4,101.9z"/>
		<path fill="#0F5B5C" d="M98.4,126.1c0,0-1.8-1.7-4.2-3.9c-4.1-3.8-9.8-9.1-9.8-9.1s-5.7,5.3-9.8,9.1c-2.3,2.2-4.2,3.9-4.2,3.9
			s-1.8-1.7-4.2-3.9c-4.1-3.8-9.8-9.1-9.8-9.1s-5.7,5.3-9.8,9.1c-2.3,2.2-4.2,3.9-4.2,3.9s-1.8-1.7-4.2-3.9
			c-4.1-3.8-9.8-9.1-9.8-9.1s-5.7,5.3-9.8,9.1c-2.3,2.2-4.2,3.9-4.2,3.9s-1.8-1.7-4.2-3.9c-4.1-3.8-9.8-9.1-9.8-9.1v5.2
			c0,0,1.8,1.7,4.2,3.9h0c4.1,3.8,9.8,9.1,9.8,9.1s5.7-5.3,9.8-9.1h0c2.3-2.2,4.2-3.9,4.2-3.9s1.8,1.7,4.2,3.9h0
			c4.1,3.8,9.8,9.1,9.8,9.1s5.7-5.3,9.8-9.1h0c2.3-2.2,4.2-3.9,4.2-3.9s1.8,1.7,4.2,3.9h0c4.1,3.8,9.8,9.1,9.8,9.1s5.7-5.3,9.8-9.1
			h0c2.3-2.2,4.2-3.9,4.2-3.9s1.8,1.7,4.2,3.9h0c4.1,3.8,9.8,9.1,9.8,9.1s5.7-5.3,9.8-9.1h0c2.3-2.2,4.2-3.9,4.2-3.9v-5.2
			c0,0-5.7,5.3-9.8,9.1C100.3,124.4,98.4,126.1,98.4,126.1z"/>
		<polygon fill="#0F5B5C" points="83.9,123.8 69.9,136.8 55.9,123.8 41.9,136.8 28,123.8 14,136.8 0,123.8 0,129 14,142 28,129 
			41.9,142 55.9,129 69.9,142 83.9,129 97.9,142 111.9,129 111.9,123.8 97.9,136.8 		"/>
		<path fill="#0F5B5C" d="M108.2,166.9L108.2,166.9c2.3-2.2,4.2-3.9,4.2-3.9v-5.2c0,0-5.7,5.3-9.8,9.1H108.2z"/>
		<path fill="#0F5B5C" d="M98.4,148.5c0,0-1.8-1.7-4.2-3.9c-4.1-3.8-9.8-9.1-9.8-9.1s-5.7,5.3-9.8,9.1c-2.3,2.2-4.2,3.9-4.2,3.9
			s-1.8-1.7-4.2-3.9c-4.1-3.8-9.8-9.1-9.8-9.1s-5.7,5.3-9.8,9.1c-2.3,2.2-4.2,3.9-4.2,3.9s-1.8-1.7-4.2-3.9
			c-4.1-3.8-9.8-9.1-9.8-9.1s-5.7,5.3-9.8,9.1c-2.3,2.2-4.2,3.9-4.2,3.9s-1.8-1.7-4.2-3.9c-4.1-3.8-9.8-9.1-9.8-9.1v5.2
			c0,0,1.8,1.7,4.2,3.9h0c4.1,3.8,9.8,9.1,9.8,9.1s5.7-5.3,9.8-9.1h0c2.3-2.2,4.2-3.9,4.2-3.9s1.8,1.7,4.2,3.9h0
			c4.1,3.8,9.8,9.1,9.8,9.1s5.7-5.3,9.8-9.1h0c2.3-2.2,4.2-3.9,4.2-3.9s1.8,1.7,4.2,3.9h0c4.1,3.8,9.8,9.1,9.8,9.1s5.7-5.3,9.8-9.1
			h0c2.3-2.2,4.2-3.9,4.2-3.9s1.8,1.7,4.2,3.9h0c4.1,3.8,9.8,9.1,9.8,9.1s5.7-5.3,9.8-9.1h0c2.3-2.2,4.2-3.9,4.2-3.9v-5.2
			c0,0-5.7,5.3-9.8,9.1C100.3,146.7,98.4,148.5,98.4,148.5z"/>
		<polygon fill="#0F5B5C" points="84.4,146.6 70.5,159.6 56.5,146.6 42.5,159.6 28.5,146.6 14.5,159.6 0.5,146.6 0.5,151.9 
			14.5,164.9 28.5,151.9 42.5,164.9 56.5,151.9 70.5,164.9 84.4,151.9 98.4,164.9 112.4,151.9 112.4,146.6 98.4,159.6 		"/>
		<path fill="#0F5B5C" d="M74.6,166.9h5.6h0c2.3-2.2,4.2-3.9,4.2-3.9s1.8,1.7,4.2,3.9h0h5.6c-4.1-3.8-9.8-9.1-9.8-9.1
			S78.8,163.1,74.6,166.9z"/>
		<path fill="#0F5B5C" d="M46.7,166.9h5.6h0c2.3-2.2,4.2-3.9,4.2-3.9s1.8,1.7,4.2,3.9h0h5.6c-4.1-3.8-9.8-9.1-9.8-9.1
			S50.8,163.1,46.7,166.9z"/>
		<path fill="#0F5B5C" d="M18.7,166.9h5.6h0c2.3-2.2,4.2-3.9,4.2-3.9s1.8,1.7,4.2,3.9h0h5.6c-4.1-3.8-9.8-9.1-9.8-9.1
			S22.8,163.1,18.7,166.9z"/>
		<path fill="#0F5B5C" d="M0.5,163c0,0,1.8,1.7,4.2,3.9h0h5.6c-4.1-3.8-9.8-9.1-9.8-9.1V163z"/>
	</g>
	<use xlink:href="#SVGID_1_"  overflow="visible" fill="none" stroke="#000000" stroke-miterlimit="10"/>
</g>
</svg>
